
<svg width="1650.0" height="1650.0" viewBox="0 0 1650.0 1275.0" xmlns="http://www.w3.org/2000/svg" xmlns:xlink="http://www.w3.org/1999/xlink">

<rect fill="white" width="1650.0" height="1275.0" stroke="black" x="0" y="0" />
<rect fill="white" fill-opacity="0.0" width="93.5" height="38.25" stroke="black" x="363.0" y="216.75" />
<text x="373.0" y="235.875" dominant-baseline="middle" font-size="x-large">1</text>
<rect fill="white" fill-opacity="0.0" width="93.5" height="85.0" stroke="black" x="363.0" y="255.0" />
<polyline fill="none" stroke="black" points="419.95,335.75 451.825,303.875 419.95,272.0 388.075,303.875 419.95,335.75 " />
<rect fill="white" fill-opacity="0.0" width="93.5" height="85.0" stroke="black" x="363.0" y="340.0" />
<polyline fill="none" stroke="black" points="419.95,420.75 451.825,388.875 419.95,357.0 388.075,388.875 419.95,420.75 " />
<rect fill="white" fill-opacity="0.0" width="93.5" height="85.0" stroke="black" x="363.0" y="425.0" />
<polyline fill="none" stroke="black" points="419.95,505.75 451.825,473.875 419.95,442.0 388.075,473.875 419.95,505.75 " />
<rect fill="white" fill-opacity="0.0" width="93.5" height="85.0" stroke="black" x="363.0" y="510.0" />
<polyline fill="none" stroke="black" points="419.95,590.75 451.825,558.875 419.95,527.0 388.075,558.875 419.95,590.75 " />
<rect fill="white" fill-opacity="0.0" width="93.5" height="85.0" stroke="black" x="363.0" y="595.0" />
<polyline fill="none" stroke="black" points="419.95,675.75 451.825,643.875 419.95,612.0 388.075,643.875 419.95,675.75 " />
<rect fill="white" fill-opacity="0.0" width="93.5" height="85.0" stroke="black" x="363.0" y="680.0" />
<polyline fill="none" stroke="black" points="419.95,760.75 451.825,728.875 419.95,697.0 388.075,728.875 419.95,760.75 " />
<rect fill="white" fill-opacity="0.0" width="93.5" height="85.0" stroke="black" x="363.0" y="765.0" />
<polyline fill="none" stroke="black" points="419.95,845.75 451.825,813.875 419.95,782.0 388.075,813.875 419.95,845.75 " />
<rect fill="white" fill-opacity="0.0" width="93.5" height="85.0" stroke="black" x="363.0" y="850.0" />
<polyline fill="none" stroke="black" points="419.95,930.75 451.825,898.875 419.95,867.0 388.075,898.875 419.95,930.75 " />
<rect fill="white" fill-opacity="0.0" width="93.5" height="85.0" stroke="black" x="363.0" y="935.0" />
<polyline fill="none" stroke="black" points="419.95,1015.75 451.825,983.875 419.95,952.0 388.075,983.875 419.95,1015.75 " />
<rect fill="white" fill-opacity="0.0" width="93.5" height="38.25" stroke="black" x="456.5" y="216.75" />
<text x="466.5" y="235.875" dominant-baseline="middle" font-size="x-large">2</text>
<rect fill="white" fill-opacity="0.0" width="93.5" height="85.0" stroke="black" x="456.5" y="255.0" />
<polyline fill="none" stroke="black" points="513.45,335.75 545.325,303.875 513.45,272.0 481.57500000000005,303.875 513.45,335.75 " />
<rect fill="white" fill-opacity="0.0" width="93.5" height="85.0" stroke="black" x="456.5" y="340.0" />
<polyline fill="none" stroke="black" points="513.45,420.75 545.325,388.875 513.45,357.0 481.57500000000005,388.875 513.45,420.75 " />
<rect fill="white" fill-opacity="0.0" width="93.5" height="85.0" stroke="black" x="456.5" y="425.0" />
<polyline fill="none" stroke="black" points="513.45,505.75 545.325,473.875 513.45,442.0 481.57500000000005,473.875 513.45,505.75 " />
<rect fill="white" fill-opacity="0.0" width="93.5" height="85.0" stroke="black" x="456.5" y="510.0" />
<polyline fill="none" stroke="black" points="513.45,590.75 545.325,558.875 513.45,527.0 481.57500000000005,558.875 513.45,590.75 " />
<rect fill="white" fill-opacity="0.0" width="93.5" height="85.0" stroke="black" x="456.5" y="595.0" />
<polyline fill="none" stroke="black" points="513.45,675.75 545.325,643.875 513.45,612.0 481.57500000000005,643.875 513.45,675.75 " />
<rect fill="white" fill-opacity="0.0" width="93.5" height="85.0" stroke="black" x="456.5" y="680.0" />
<polyline fill="none" stroke="black" points="513.45,760.75 545.325,728.875 513.45,697.0 481.57500000000005,728.875 513.45,760.75 " />
<rect fill="white" fill-opacity="0.0" width="93.5" height="85.0" stroke="black" x="456.5" y="765.0" />
<polyline fill="none" stroke="black" points="513.45,845.75 545.325,813.875 513.45,782.0 481.57500000000005,813.875 513.45,845.75 " />
<rect fill="white" fill-opacity="0.0" width="93.5" height="85.0" stroke="black" x="456.5" y="850.0" />
<polyline fill="none" stroke="black" points="513.45,930.75 545.325,898.875 513.45,867.0 481.57500000000005,898.875 513.45,930.75 " />
<rect fill="white" fill-opacity="0.0" width="93.5" height="85.0" stroke="black" x="456.5" y="935.0" />
<polyline fill="none" stroke="black" points="513.45,1015.75 545.325,983.875 513.45,952.0 481.57500000000005,983.875 513.45,1015.75 " />
<rect fill="white" fill-opacity="0.0" width="93.5" height="38.25" stroke="black" x="550.0" y="216.75" />
<text x="560.0" y="235.875" dominant-baseline="middle" font-size="x-large">3</text>
<rect fill="white" fill-opacity="0.0" width="93.5" height="85.0" stroke="black" x="550.0" y="255.0" />
<polyline fill="none" stroke="black" points="606.95,335.75 638.825,303.875 606.95,272.0 575.075,303.875 606.95,335.75 " />
<rect fill="white" fill-opacity="0.0" width="93.5" height="85.0" stroke="black" x="550.0" y="340.0" />
<polyline fill="none" stroke="black" points="606.95,420.75 638.825,388.875 606.95,357.0 575.075,388.875 606.95,420.75 " />
<rect fill="white" fill-opacity="0.0" width="93.5" height="85.0" stroke="black" x="550.0" y="425.0" />
<polyline fill="none" stroke="black" points="606.95,505.75 638.825,473.875 606.95,442.0 575.075,473.875 606.95,505.75 " />
<rect fill="white" fill-opacity="0.0" width="93.5" height="85.0" stroke="black" x="550.0" y="510.0" />
<polyline fill="none" stroke="black" points="606.95,590.75 638.825,558.875 606.95,527.0 575.075,558.875 606.95,590.75 " />
<rect fill="white" fill-opacity="0.0" width="93.5" height="85.0" stroke="black" x="550.0" y="595.0" />
<polyline fill="none" stroke="black" points="606.95,675.75 638.825,643.875 606.95,612.0 575.075,643.875 606.95,675.75 " />
<rect fill="white" fill-opacity="0.0" width="93.5" height="85.0" stroke="black" x="550.0" y="680.0" />
<polyline fill="none" stroke="black" points="606.95,760.75 638.825,728.875 606.95,697.0 575.075,728.875 606.95,760.75 " />
<rect fill="white" fill-opacity="0.0" width="93.5" height="85.0" stroke="black" x="550.0" y="765.0" />
<polyline fill="none" stroke="black" points="606.95,845.75 638.825,813.875 606.95,782.0 575.075,813.875 606.95,845.75 " />
<rect fill="white" fill-opacity="0.0" width="93.5" height="85.0" stroke="black" x="550.0" y="850.0" />
<polyline fill="none" stroke="black" points="606.95,930.75 638.825,898.875 606.95,867.0 575.075,898.875 606.95,930.75 " />
<rect fill="white" fill-opacity="0.0" width="93.5" height="85.0" stroke="black" x="550.0" y="935.0" />
<polyline fill="none" stroke="black" points="606.95,1015.75 638.825,983.875 606.95,952.0 575.075,983.875 606.95,1015.75 " />
<rect fill="white" fill-opacity="0.0" width="93.5" height="38.25" stroke="black" x="643.5" y="216.75" />
<text x="653.5" y="235.875" dominant-baseline="middle" font-size="x-large">4</text>
<rect fill="white" fill-opacity="0.0" width="93.5" height="85.0" stroke="black" x="643.5" y="255.0" />
<polyline fill="none" stroke="black" points="700.45,335.75 732.325,303.875 700.45,272.0 668.575,303.875 700.45,335.75 " />
<rect fill="white" fill-opacity="0.0" width="93.5" height="85.0" stroke="black" x="643.5" y="340.0" />
<polyline fill="none" stroke="black" points="700.45,420.75 732.325,388.875 700.45,357.0 668.575,388.875 700.45,420.75 " />
<rect fill="white" fill-opacity="0.0" width="93.5" height="85.0" stroke="black" x="643.5" y="425.0" />
<polyline fill="none" stroke="black" points="700.45,505.75 732.325,473.875 700.45,442.0 668.575,473.875 700.45,505.75 " />
<rect fill="white" fill-opacity="0.0" width="93.5" height="85.0" stroke="black" x="643.5" y="510.0" />
<polyline fill="none" stroke="black" points="700.45,590.75 732.325,558.875 700.45,527.0 668.575,558.875 700.45,590.75 " />
<rect fill="white" fill-opacity="0.0" width="93.5" height="85.0" stroke="black" x="643.5" y="595.0" />
<polyline fill="none" stroke="black" points="700.45,675.75 732.325,643.875 700.45,612.0 668.575,643.875 700.45,675.75 " />
<rect fill="white" fill-opacity="0.0" width="93.5" height="85.0" stroke="black" x="643.5" y="680.0" />
<polyline fill="none" stroke="black" points="700.45,760.75 732.325,728.875 700.45,697.0 668.575,728.875 700.45,760.75 " />
<rect fill="white" fill-opacity="0.0" width="93.5" height="85.0" stroke="black" x="643.5" y="765.0" />
<polyline fill="none" stroke="black" points="700.45,845.75 732.325,813.875 700.45,782.0 668.575,813.875 700.45,845.75 " />
<rect fill="white" fill-opacity="0.0" width="93.5" height="85.0" stroke="black" x="643.5" y="850.0" />
<polyline fill="none" stroke="black" points="700.45,930.75 732.325,898.875 700.45,867.0 668.575,898.875 700.45,930.75 " />
<rect fill="white" fill-opacity="0.0" width="93.5" height="85.0" stroke="black" x="643.5" y="935.0" />
<polyline fill="none" stroke="black" points="700.45,1015.75 732.325,983.875 700.45,952.0 668.575,983.875 700.45,1015.75 " />
<rect fill="white" fill-opacity="0.0" width="93.5" height="38.25" stroke="black" x="737.0" y="216.75" />
<text x="747.0" y="235.875" dominant-baseline="middle" font-size="x-large">5</text>
<rect fill="white" fill-opacity="0.0" width="93.5" height="85.0" stroke="black" x="737.0" y="255.0" />
<polyline fill="none" stroke="black" points="793.95,335.75 825.825,303.875 793.95,272.0 762.075,303.875 793.95,335.75 " />
<rect fill="white" fill-opacity="0.0" width="93.5" height="85.0" stroke="black" x="737.0" y="340.0" />
<polyline fill="none" stroke="black" points="793.95,420.75 825.825,388.875 793.95,357.0 762.075,388.875 793.95,420.75 " />
<rect fill="white" fill-opacity="0.0" width="93.5" height="85.0" stroke="black" x="737.0" y="425.0" />
<polyline fill="none" stroke="black" points="793.95,505.75 825.825,473.875 793.95,442.0 762.075,473.875 793.95,505.75 " />
<rect fill="white" fill-opacity="0.0" width="93.5" height="85.0" stroke="black" x="737.0" y="510.0" />
<polyline fill="none" stroke="black" points="793.95,590.75 825.825,558.875 793.95,527.0 762.075,558.875 793.95,590.75 " />
<rect fill="white" fill-opacity="0.0" width="93.5" height="85.0" stroke="black" x="737.0" y="595.0" />
<polyline fill="none" stroke="black" points="793.95,675.75 825.825,643.875 793.95,612.0 762.075,643.875 793.95,675.75 " />
<rect fill="white" fill-opacity="0.0" width="93.5" height="85.0" stroke="black" x="737.0" y="680.0" />
<polyline fill="none" stroke="black" points="793.95,760.75 825.825,728.875 793.95,697.0 762.075,728.875 793.95,760.75 " />
<rect fill="white" fill-opacity="0.0" width="93.5" height="85.0" stroke="black" x="737.0" y="765.0" />
<polyline fill="none" stroke="black" points="793.95,845.75 825.825,813.875 793.95,782.0 762.075,813.875 793.95,845.75 " />
<rect fill="white" fill-opacity="0.0" width="93.5" height="85.0" stroke="black" x="737.0" y="850.0" />
<polyline fill="none" stroke="black" points="793.95,930.75 825.825,898.875 793.95,867.0 762.075,898.875 793.95,930.75 " />
<rect fill="white" fill-opacity="0.0" width="93.5" height="85.0" stroke="black" x="737.0" y="935.0" />
<polyline fill="none" stroke="black" points="793.95,1015.75 825.825,983.875 793.95,952.0 762.075,983.875 793.95,1015.75 " />
<rect fill="white" fill-opacity="0.0" width="93.5" height="38.25" stroke="black" x="830.5" y="216.75" />
<text x="840.5" y="235.875" dominant-baseline="middle" font-size="x-large">6</text>
<rect fill="white" fill-opacity="0.0" width="93.5" height="85.0" stroke="black" x="830.5" y="255.0" />
<polyline fill="none" stroke="black" points="887.45,335.75 919.325,303.875 887.45,272.0 855.575,303.875 887.45,335.75 " />
<rect fill="white" fill-opacity="0.0" width="93.5" height="85.0" stroke="black" x="830.5" y="340.0" />
<polyline fill="none" stroke="black" points="887.45,420.75 919.325,388.875 887.45,357.0 855.575,388.875 887.45,420.75 " />
<rect fill="white" fill-opacity="0.0" width="93.5" height="85.0" stroke="black" x="830.5" y="425.0" />
<polyline fill="none" stroke="black" points="887.45,505.75 919.325,473.875 887.45,442.0 855.575,473.875 887.45,505.75 " />
<rect fill="white" fill-opacity="0.0" width="93.5" height="85.0" stroke="black" x="830.5" y="510.0" />
<polyline fill="none" stroke="black" points="887.45,590.75 919.325,558.875 887.45,527.0 855.575,558.875 887.45,590.75 " />
<rect fill="white" fill-opacity="0.0" width="93.5" height="85.0" stroke="black" x="830.5" y="595.0" />
<polyline fill="none" stroke="black" points="887.45,675.75 919.325,643.875 887.45,612.0 855.575,643.875 887.45,675.75 " />
<rect fill="white" fill-opacity="0.0" width="93.5" height="85.0" stroke="black" x="830.5" y="680.0" />
<polyline fill="none" stroke="black" points="887.45,760.75 919.325,728.875 887.45,697.0 855.575,728.875 887.45,760.75 " />
<rect fill="white" fill-opacity="0.0" width="93.5" height="85.0" stroke="black" x="830.5" y="765.0" />
<polyline fill="none" stroke="black" points="887.45,845.75 919.325,813.875 887.45,782.0 855.575,813.875 887.45,845.75 " />
<rect fill="white" fill-opacity="0.0" width="93.5" height="85.0" stroke="black" x="830.5" y="850.0" />
<polyline fill="none" stroke="black" points="887.45,930.75 919.325,898.875 887.45,867.0 855.575,898.875 887.45,930.75 " />
<rect fill="white" fill-opacity="0.0" width="93.5" height="85.0" stroke="black" x="830.5" y="935.0" />
<polyline fill="none" stroke="black" points="887.45,1015.75 919.325,983.875 887.45,952.0 855.575,983.875 887.45,1015.75 " />
<rect fill="white" fill-opacity="0.0" width="93.5" height="38.25" stroke="black" x="924.0" y="216.75" />
<text x="934.0" y="235.875" dominant-baseline="middle" font-size="x-large">7</text>
<rect fill="white" fill-opacity="0.0" width="93.5" height="85.0" stroke="black" x="924.0" y="255.0" />
<polyline fill="none" stroke="black" points="980.95,335.75 1012.825,303.875 980.95,272.0 949.075,303.875 980.95,335.75 " />
<rect fill="white" fill-opacity="0.0" width="93.5" height="85.0" stroke="black" x="924.0" y="340.0" />
<polyline fill="none" stroke="black" points="980.95,420.75 1012.825,388.875 980.95,357.0 949.075,388.875 980.95,420.75 " />
<rect fill="white" fill-opacity="0.0" width="93.5" height="85.0" stroke="black" x="924.0" y="425.0" />
<polyline fill="none" stroke="black" points="980.95,505.75 1012.825,473.875 980.95,442.0 949.075,473.875 980.95,505.75 " />
<rect fill="white" fill-opacity="0.0" width="93.5" height="85.0" stroke="black" x="924.0" y="510.0" />
<polyline fill="none" stroke="black" points="980.95,590.75 1012.825,558.875 980.95,527.0 949.075,558.875 980.95,590.75 " />
<rect fill="white" fill-opacity="0.0" width="93.5" height="85.0" stroke="black" x="924.0" y="595.0" />
<polyline fill="none" stroke="black" points="980.95,675.75 1012.825,643.875 980.95,612.0 949.075,643.875 980.95,675.75 " />
<rect fill="white" fill-opacity="0.0" width="93.5" height="85.0" stroke="black" x="924.0" y="680.0" />
<polyline fill="none" stroke="black" points="980.95,760.75 1012.825,728.875 980.95,697.0 949.075,728.875 980.95,760.75 " />
<rect fill="white" fill-opacity="0.0" width="93.5" height="85.0" stroke="black" x="924.0" y="765.0" />
<polyline fill="none" stroke="black" points="980.95,845.75 1012.825,813.875 980.95,782.0 949.075,813.875 980.95,845.75 " />
<rect fill="white" fill-opacity="0.0" width="93.5" height="85.0" stroke="black" x="924.0" y="850.0" />
<polyline fill="none" stroke="black" points="980.95,930.75 1012.825,898.875 980.95,867.0 949.075,898.875 980.95,930.75 " />
<rect fill="white" fill-opacity="0.0" width="93.5" height="85.0" stroke="black" x="924.0" y="935.0" />
<polyline fill="none" stroke="black" points="980.95,1015.75 1012.825,983.875 980.95,952.0 949.075,983.875 980.95,1015.75 " />
<rect fill="white" fill-opacity="0.0" width="93.5" height="38.25" stroke="black" x="1017.5" y="216.75" />
<text x="1027.5" y="235.875" dominant-baseline="middle" font-size="x-large">8</text>
<rect fill="white" fill-opacity="0.0" width="93.5" height="85.0" stroke="black" x="1017.5" y="255.0" />
<polyline fill="none" stroke="black" points="1074.45,335.75 1106.325,303.875 1074.45,272.0 1042.575,303.875 1074.45,335.75 " />
<rect fill="white" fill-opacity="0.0" width="93.5" height="85.0" stroke="black" x="1017.5" y="340.0" />
<polyline fill="none" stroke="black" points="1074.45,420.75 1106.325,388.875 1074.45,357.0 1042.575,388.875 1074.45,420.75 " />
<rect fill="white" fill-opacity="0.0" width="93.5" height="85.0" stroke="black" x="1017.5" y="425.0" />
<polyline fill="none" stroke="black" points="1074.45,505.75 1106.325,473.875 1074.45,442.0 1042.575,473.875 1074.45,505.75 " />
<rect fill="white" fill-opacity="0.0" width="93.5" height="85.0" stroke="black" x="1017.5" y="510.0" />
<polyline fill="none" stroke="black" points="1074.45,590.75 1106.325,558.875 1074.45,527.0 1042.575,558.875 1074.45,590.75 " />
<rect fill="white" fill-opacity="0.0" width="93.5" height="85.0" stroke="black" x="1017.5" y="595.0" />
<polyline fill="none" stroke="black" points="1074.45,675.75 1106.325,643.875 1074.45,612.0 1042.575,643.875 1074.45,675.75 " />
<rect fill="white" fill-opacity="0.0" width="93.5" height="85.0" stroke="black" x="1017.5" y="680.0" />
<polyline fill="none" stroke="black" points="1074.45,760.75 1106.325,728.875 1074.45,697.0 1042.575,728.875 1074.45,760.75 " />
<rect fill="white" fill-opacity="0.0" width="93.5" height="85.0" stroke="black" x="1017.5" y="765.0" />
<polyline fill="none" stroke="black" points="1074.45,845.75 1106.325,813.875 1074.45,782.0 1042.575,813.875 1074.45,845.75 " />
<rect fill="white" fill-opacity="0.0" width="93.5" height="85.0" stroke="black" x="1017.5" y="850.0" />
<polyline fill="none" stroke="black" points="1074.45,930.75 1106.325,898.875 1074.45,867.0 1042.575,898.875 1074.45,930.75 " />
<rect fill="white" fill-opacity="0.0" width="93.5" height="85.0" stroke="black" x="1017.5" y="935.0" />
<polyline fill="none" stroke="black" points="1074.45,1015.75 1106.325,983.875 1074.45,952.0 1042.575,983.875 1074.45,1015.75 " />
<rect fill="white" fill-opacity="0.0" width="93.5" height="38.25" stroke="black" x="1111.0" y="216.75" />
<text x="1121.0" y="235.875" dominant-baseline="middle" font-size="x-large">9</text>
<rect fill="white" fill-opacity="0.0" width="93.5" height="85.0" stroke="black" x="1111.0" y="255.0" />
<polyline fill="none" stroke="black" points="1167.95,335.75 1199.825,303.875 1167.95,272.0 1136.075,303.875 1167.95,335.75 " />
<rect fill="white" fill-opacity="0.0" width="93.5" height="85.0" stroke="black" x="1111.0" y="340.0" />
<polyline fill="none" stroke="black" points="1167.95,420.75 1199.825,388.875 1167.95,357.0 1136.075,388.875 1167.95,420.75 " />
<rect fill="white" fill-opacity="0.0" width="93.5" height="85.0" stroke="black" x="1111.0" y="425.0" />
<polyline fill="none" stroke="black" points="1167.95,505.75 1199.825,473.875 1167.95,442.0 1136.075,473.875 1167.95,505.75 " />
<rect fill="white" fill-opacity="0.0" width="93.5" height="85.0" stroke="black" x="1111.0" y="510.0" />
<polyline fill="none" stroke="black" points="1167.95,590.75 1199.825,558.875 1167.95,527.0 1136.075,558.875 1167.95,590.75 " />
<rect fill="white" fill-opacity="0.0" width="93.5" height="85.0" stroke="black" x="1111.0" y="595.0" />
<polyline fill="none" stroke="black" points="1167.95,675.75 1199.825,643.875 1167.95,612.0 1136.075,643.875 1167.95,675.75 " />
<rect fill="white" fill-opacity="0.0" width="93.5" height="85.0" stroke="black" x="1111.0" y="680.0" />
<polyline fill="none" stroke="black" points="1167.95,760.75 1199.825,728.875 1167.95,697.0 1136.075,728.875 1167.95,760.75 " />
<rect fill="white" fill-opacity="0.0" width="93.5" height="85.0" stroke="black" x="1111.0" y="765.0" />
<polyline fill="none" stroke="black" points="1167.95,845.75 1199.825,813.875 1167.95,782.0 1136.075,813.875 1167.95,845.75 " />
<rect fill="white" fill-opacity="0.0" width="93.5" height="85.0" stroke="black" x="1111.0" y="850.0" />
<polyline fill="none" stroke="black" points="1167.95,930.75 1199.825,898.875 1167.95,867.0 1136.075,898.875 1167.95,930.75 " />
<rect fill="white" fill-opacity="0.0" width="93.5" height="85.0" stroke="black" x="1111.0" y="935.0" />
<polyline fill="none" stroke="black" points="1167.95,1015.75 1199.825,983.875 1167.95,952.0 1136.075,983.875 1167.95,1015.75 " />
<rect fill="white" fill-opacity="0.0" width="93.5" height="38.25" stroke="black" x="1204.5" y="216.75" />
<text x="1214.5" y="235.875" dominant-baseline="middle" font-size="x-large">10</text>
<rect fill="white" fill-opacity="0.0" width="93.5" height="85.0" stroke="black" x="1204.5" y="255.0" />
<polyline fill="none" stroke="black" points="1261.45,335.75 1293.325,303.875 1261.45,272.0 1229.575,303.875 1261.45,335.75 " />
<rect fill="white" fill-opacity="0.0" width="93.5" height="85.0" stroke="black" x="1204.5" y="340.0" />
<polyline fill="none" stroke="black" points="1261.45,420.75 1293.325,388.875 1261.45,357.0 1229.575,388.875 1261.45,420.75 " />
<rect fill="white" fill-opacity="0.0" width="93.5" height="85.0" stroke="black" x="1204.5" y="425.0" />
<polyline fill="none" stroke="black" points="1261.45,505.75 1293.325,473.875 1261.45,442.0 1229.575,473.875 1261.45,505.75 " />
<rect fill="white" fill-opacity="0.0" width="93.5" height="85.0" stroke="black" x="1204.5" y="510.0" />
<polyline fill="none" stroke="black" points="1261.45,590.75 1293.325,558.875 1261.45,527.0 1229.575,558.875 1261.45,590.75 " />
<rect fill="white" fill-opacity="0.0" width="93.5" height="85.0" stroke="black" x="1204.5" y="595.0" />
<polyline fill="none" stroke="black" points="1261.45,675.75 1293.325,643.875 1261.45,612.0 1229.575,643.875 1261.45,675.75 " />
<rect fill="white" fill-opacity="0.0" width="93.5" height="85.0" stroke="black" x="1204.5" y="680.0" />
<polyline fill="none" stroke="black" points="1261.45,760.75 1293.325,728.875 1261.45,697.0 1229.575,728.875 1261.45,760.75 " />
<rect fill="white" fill-opacity="0.0" width="93.5" height="85.0" stroke="black" x="1204.5" y="765.0" />
<polyline fill="none" stroke="black" points="1261.45,845.75 1293.325,813.875 1261.45,782.0 1229.575,813.875 1261.45,845.75 " />
<rect fill="white" fill-opacity="0.0" width="93.5" height="85.0" stroke="black" x="1204.5" y="850.0" />
<polyline fill="none" stroke="black" points="1261.45,930.75 1293.325,898.875 1261.45,867.0 1229.575,898.875 1261.45,930.75 " />
<rect fill="white" fill-opacity="0.0" width="93.5" height="85.0" stroke="black" x="1204.5" y="935.0" />
<polyline fill="none" stroke="black" points="1261.45,1015.75 1293.325,983.875 1261.45,952.0 1229.575,983.875 1261.45,1015.75 " />
<rect fill="white" fill-opacity="0.0" width="93.5" height="38.25" stroke="black" x="1298.0" y="216.75" />
<text x="1308.0" y="235.875" dominant-baseline="middle" font-size="x-large">11</text>
<rect fill="white" fill-opacity="0.0" width="93.5" height="85.0" stroke="black" x="1298.0" y="255.0" />
<polyline fill="none" stroke="black" points="1354.95,335.75 1386.825,303.875 1354.95,272.0 1323.075,303.875 1354.95,335.75 " />
<rect fill="white" fill-opacity="0.0" width="93.5" height="85.0" stroke="black" x="1298.0" y="340.0" />
<polyline fill="none" stroke="black" points="1354.95,420.75 1386.825,388.875 1354.95,357.0 1323.075,388.875 1354.95,420.75 " />
<rect fill="white" fill-opacity="0.0" width="93.5" height="85.0" stroke="black" x="1298.0" y="425.0" />
<polyline fill="none" stroke="black" points="1354.95,505.75 1386.825,473.875 1354.95,442.0 1323.075,473.875 1354.95,505.75 " />
<rect fill="white" fill-opacity="0.0" width="93.5" height="85.0" stroke="black" x="1298.0" y="510.0" />
<polyline fill="none" stroke="black" points="1354.95,590.75 1386.825,558.875 1354.95,527.0 1323.075,558.875 1354.95,590.75 " />
<rect fill="white" fill-opacity="0.0" width="93.5" height="85.0" stroke="black" x="1298.0" y="595.0" />
<polyline fill="none" stroke="black" points="1354.95,675.75 1386.825,643.875 1354.95,612.0 1323.075,643.875 1354.95,675.75 " />
<rect fill="white" fill-opacity="0.0" width="93.5" height="85.0" stroke="black" x="1298.0" y="680.0" />
<polyline fill="none" stroke="black" points="1354.95,760.75 1386.825,728.875 1354.95,697.0 1323.075,728.875 1354.95,760.75 " />
<rect fill="white" fill-opacity="0.0" width="93.5" height="85.0" stroke="black" x="1298.0" y="765.0" />
<polyline fill="none" stroke="black" points="1354.95,845.75 1386.825,813.875 1354.95,782.0 1323.075,813.875 1354.95,845.75 " />
<rect fill="white" fill-opacity="0.0" width="93.5" height="85.0" stroke="black" x="1298.0" y="850.0" />
<polyline fill="none" stroke="black" points="1354.95,930.75 1386.825,898.875 1354.95,867.0 1323.075,898.875 1354.95,930.75 " />
<rect fill="white" fill-opacity="0.0" width="93.5" height="85.0" stroke="black" x="1298.0" y="935.0" />
<polyline fill="none" stroke="black" points="1354.95,1015.75 1386.825,983.875 1354.95,952.0 1323.075,983.875 1354.95,1015.75 " />
<rect fill="white" fill-opacity="0.0" width="93.5" height="38.25" stroke="black" x="1391.5" y="216.75" />
<text x="1401.5" y="235.875" dominant-baseline="middle" font-size="x-large">12</text>
<rect fill="white" fill-opacity="0.0" width="93.5" height="85.0" stroke="black" x="1391.5" y="255.0" />
<polyline fill="none" stroke="black" points="1448.45,335.75 1480.325,303.875 1448.45,272.0 1416.575,303.875 1448.45,335.75 " />
<rect fill="white" fill-opacity="0.0" width="93.5" height="85.0" stroke="black" x="1391.5" y="340.0" />
<polyline fill="none" stroke="black" points="1448.45,420.75 1480.325,388.875 1448.45,357.0 1416.575,388.875 1448.45,420.75 " />
<rect fill="white" fill-opacity="0.0" width="93.5" height="85.0" stroke="black" x="1391.5" y="425.0" />
<polyline fill="none" stroke="black" points="1448.45,505.75 1480.325,473.875 1448.45,442.0 1416.575,473.875 1448.45,505.75 " />
<rect fill="white" fill-opacity="0.0" width="93.5" height="85.0" stroke="black" x="1391.5" y="510.0" />
<polyline fill="none" stroke="black" points="1448.45,590.75 1480.325,558.875 1448.45,527.0 1416.575,558.875 1448.45,590.75 " />
<rect fill="white" fill-opacity="0.0" width="93.5" height="85.0" stroke="black" x="1391.5" y="595.0" />
<polyline fill="none" stroke="black" points="1448.45,675.75 1480.325,643.875 1448.45,612.0 1416.575,643.875 1448.45,675.75 " />
<rect fill="white" fill-opacity="0.0" width="93.5" height="85.0" stroke="black" x="1391.5" y="680.0" />
<polyline fill="none" stroke="black" points="1448.45,760.75 1480.325,728.875 1448.45,697.0 1416.575,728.875 1448.45,760.75 " />
<rect fill="white" fill-opacity="0.0" width="93.5" height="85.0" stroke="black" x="1391.5" y="765.0" />
<polyline fill="none" stroke="black" points="1448.45,845.75 1480.325,813.875 1448.45,782.0 1416.575,813.875 1448.45,845.75 " />
<rect fill="white" fill-opacity="0.0" width="93.5" height="85.0" stroke="black" x="1391.5" y="850.0" />
<polyline fill="none" stroke="black" points="1448.45,930.75 1480.325,898.875 1448.45,867.0 1416.575,898.875 1448.45,930.75 " />
<rect fill="white" fill-opacity="0.0" width="93.5" height="85.0" stroke="black" x="1391.5" y="935.0" />
<polyline fill="none" stroke="black" points="1448.45,1015.75 1480.325,983.875 1448.45,952.0 1416.575,983.875 1448.45,1015.75 " />
<rect fill="white" fill-opacity="0.0" width="51.97500000000001" height="38.25" stroke="black" x="16.5" y="216.75" />
<text x="26.5" y="235.875" dominant-baseline="middle" font-size="x-large">#</text>
<rect fill="white" fill-opacity="0.0" width="51.97500000000002" height="38.25" stroke="black" x="311.025" y="216.75" />
<text x="321.025" y="235.875" dominant-baseline="middle" font-size="x-large">PO</text>
<rect fill="white" fill-opacity="0.0" width="242.54999999999995" height="38.25" stroke="black" x="68.47500000000001" y="216.75" />
<text x="78.47500000000001" y="235.875" dominant-baseline="middle" font-size="x-large">Player</text>
<rect fill="white" fill-opacity="0.0" width="346.5" height="42.5" stroke="black" x="16.5" y="255.0" />
<rect fill="white" fill-opacity="0.0" width="346.5" height="42.5" stroke="black" x="16.5" y="297.5" />
<text x="78.47500000000001" y="278.375" dominant-baseline="middle" font-size="x-large">Altuve, Jose</text>
<line x1="68.47500000000001" x2="68.47500000000001" y1="255.0" y2="340.0" stroke="black" />
<line x1="311.025" x2="311.025" y1="255.0" y2="340.0" stroke="black" />
<rect fill="white" fill-opacity="0.0" width="346.5" height="42.5" stroke="black" x="16.5" y="340.0" />
<rect fill="white" fill-opacity="0.0" width="346.5" height="42.5" stroke="black" x="16.5" y="382.5" />
<text x="78.47500000000001" y="363.375" dominant-baseline="middle" font-size="x-large">Brantley, Michael</text>
<line x1="68.47500000000001" x2="68.47500000000001" y1="340.0" y2="425.0" stroke="black" />
<line x1="311.025" x2="311.025" y1="340.0" y2="425.0" stroke="black" />
<rect fill="white" fill-opacity="0.0" width="346.5" height="42.5" stroke="black" x="16.5" y="425.0" />
<rect fill="white" fill-opacity="0.0" width="346.5" height="42.5" stroke="black" x="16.5" y="467.5" />
<text x="78.47500000000001" y="448.375" dominant-baseline="middle" font-size="x-large">Bregman, Alex</text>
<line x1="68.47500000000001" x2="68.47500000000001" y1="425.0" y2="510.0" stroke="black" />
<line x1="311.025" x2="311.025" y1="425.0" y2="510.0" stroke="black" />
<rect fill="white" fill-opacity="0.0" width="346.5" height="42.5" stroke="black" x="16.5" y="510.0" />
<rect fill="white" fill-opacity="0.0" width="346.5" height="42.5" stroke="black" x="16.5" y="552.5" />
<text x="78.47500000000001" y="533.375" dominant-baseline="middle" font-size="x-large">Alvarez, Yordan</text>
<line x1="68.47500000000001" x2="68.47500000000001" y1="510.0" y2="595.0" stroke="black" />
<line x1="311.025" x2="311.025" y1="510.0" y2="595.0" stroke="black" />
<rect fill="white" fill-opacity="0.0" width="346.5" height="42.5" stroke="black" x="16.5" y="595.0" />
<rect fill="white" fill-opacity="0.0" width="346.5" height="42.5" stroke="black" x="16.5" y="637.5" />
<text x="78.47500000000001" y="618.375" dominant-baseline="middle" font-size="x-large">Tucker, Kyle</text>
<line x1="68.47500000000001" x2="68.47500000000001" y1="595.0" y2="680.0" stroke="black" />
<line x1="311.025" x2="311.025" y1="595.0" y2="680.0" stroke="black" />
<rect fill="white" fill-opacity="0.0" width="346.5" height="42.5" stroke="black" x="16.5" y="680.0" />
<rect fill="white" fill-opacity="0.0" width="346.5" height="42.5" stroke="black" x="16.5" y="722.5" />
<text x="78.47500000000001" y="703.375" dominant-baseline="middle" font-size="x-large">Gurriel, Yuli</text>
<line x1="68.47500000000001" x2="68.47500000000001" y1="680.0" y2="765.0" stroke="black" />
<line x1="311.025" x2="311.025" y1="680.0" y2="765.0" stroke="black" />
<rect fill="white" fill-opacity="0.0" width="346.5" height="42.5" stroke="black" x="16.5" y="765.0" />
<rect fill="white" fill-opacity="0.0" width="346.5" height="42.5" stroke="black" x="16.5" y="807.5" />
<text x="78.47500000000001" y="788.375" dominant-baseline="middle" font-size="x-large">McCormick, Chas</text>
<line x1="68.47500000000001" x2="68.47500000000001" y1="765.0" y2="850.0" stroke="black" />
<line x1="311.025" x2="311.025" y1="765.0" y2="850.0" stroke="black" />
<rect fill="white" fill-opacity="0.0" width="346.5" height="42.5" stroke="black" x="16.5" y="850.0" />
<rect fill="white" fill-opacity="0.0" width="346.5" height="42.5" stroke="black" x="16.5" y="892.5" />
<text x="78.47500000000001" y="873.375" dominant-baseline="middle" font-size="x-large">Castro, Jason</text>
<line x1="68.47500000000001" x2="68.47500000000001" y1="850.0" y2="935.0" stroke="black" />
<line x1="311.025" x2="311.025" y1="850.0" y2="935.0" stroke="black" />
<rect fill="white" fill-opacity="0.0" width="346.5" height="42.5" stroke="black" x="16.5" y="935.0" />
<rect fill="white" fill-opacity="0.0" width="346.5" height="42.5" stroke="black" x="16.5" y="977.5" />
<text x="78.47500000000001" y="958.375" dominant-baseline="middle" font-size="x-large">Dubón, Mauricio</text>
<line x1="68.47500000000001" x2="68.47500000000001" y1="935.0" y2="1020.0" stroke="black" />
<line x1="311.025" x2="311.025" y1="935.0" y2="1020.0" stroke="black" />
<rect fill="white" fill-opacity="0.0" width="49.5" height="38.25" stroke="black" x="1485.0" y="216.75" />
<text x="1495.0" y="235.875" dominant-baseline="middle" font-size="x-large">R</text>
<rect fill="white" fill-opacity="0.0" width="49.5" height="38.25" stroke="black" x="1534.5" y="216.75" />
<text x="1544.5" y="235.875" dominant-baseline="middle" font-size="x-large">H</text>
<rect fill="white" fill-opacity="0.0" width="49.5" height="38.25" stroke="black" x="1584.0" y="216.75" />
<text x="1594.0" y="235.875" dominant-baseline="middle" font-size="x-large">LOB</text>
<rect fill="white" fill-opacity="0.0" width="148.5" height="42.5" stroke="black" x="1485.0" y="255.0" />
<rect fill="white" fill-opacity="0.0" width="148.5" height="42.5" stroke="black" x="1485.0" y="297.5" />
<line x1="1534.5" x2="1534.5" y1="255.0" y2="340.0" stroke="black" />
<line x1="1584.0" x2="1584.0" y1="255.0" y2="340.0" stroke="black" />
<line x1="1633.5" x2="1633.5" y1="255.0" y2="340.0" stroke="black" />
<rect fill="white" fill-opacity="0.0" width="148.5" height="42.5" stroke="black" x="1485.0" y="340.0" />
<rect fill="white" fill-opacity="0.0" width="148.5" height="42.5" stroke="black" x="1485.0" y="382.5" />
<line x1="1534.5" x2="1534.5" y1="340.0" y2="425.0" stroke="black" />
<line x1="1584.0" x2="1584.0" y1="340.0" y2="425.0" stroke="black" />
<line x1="1633.5" x2="1633.5" y1="340.0" y2="425.0" stroke="black" />
<rect fill="white" fill-opacity="0.0" width="148.5" height="42.5" stroke="black" x="1485.0" y="425.0" />
<rect fill="white" fill-opacity="0.0" width="148.5" height="42.5" stroke="black" x="1485.0" y="467.5" />
<line x1="1534.5" x2="1534.5" y1="425.0" y2="510.0" stroke="black" />
<line x1="1584.0" x2="1584.0" y1="425.0" y2="510.0" stroke="black" />
<line x1="1633.5" x2="1633.5" y1="425.0" y2="510.0" stroke="black" />
<rect fill="white" fill-opacity="0.0" width="148.5" height="42.5" stroke="black" x="1485.0" y="510.0" />
<rect fill="white" fill-opacity="0.0" width="148.5" height="42.5" stroke="black" x="1485.0" y="552.5" />
<line x1="1534.5" x2="1534.5" y1="510.0" y2="595.0" stroke="black" />
<line x1="1584.0" x2="1584.0" y1="510.0" y2="595.0" stroke="black" />
<line x1="1633.5" x2="1633.5" y1="510.0" y2="595.0" stroke="black" />
<rect fill="white" fill-opacity="0.0" width="148.5" height="42.5" stroke="black" x="1485.0" y="595.0" />
<rect fill="white" fill-opacity="0.0" width="148.5" height="42.5" stroke="black" x="1485.0" y="637.5" />
<line x1="1534.5" x2="1534.5" y1="595.0" y2="680.0" stroke="black" />
<line x1="1584.0" x2="1584.0" y1="595.0" y2="680.0" stroke="black" />
<line x1="1633.5" x2="1633.5" y1="595.0" y2="680.0" stroke="black" />
<rect fill="white" fill-opacity="0.0" width="148.5" height="42.5" stroke="black" x="1485.0" y="680.0" />
<rect fill="white" fill-opacity="0.0" width="148.5" height="42.5" stroke="black" x="1485.0" y="722.5" />
<line x1="1534.5" x2="1534.5" y1="680.0" y2="765.0" stroke="black" />
<line x1="1584.0" x2="1584.0" y1="680.0" y2="765.0" stroke="black" />
<line x1="1633.5" x2="1633.5" y1="680.0" y2="765.0" stroke="black" />
<rect fill="white" fill-opacity="0.0" width="148.5" height="42.5" stroke="black" x="1485.0" y="765.0" />
<rect fill="white" fill-opacity="0.0" width="148.5" height="42.5" stroke="black" x="1485.0" y="807.5" />
<line x1="1534.5" x2="1534.5" y1="765.0" y2="850.0" stroke="black" />
<line x1="1584.0" x2="1584.0" y1="765.0" y2="850.0" stroke="black" />
<line x1="1633.5" x2="1633.5" y1="765.0" y2="850.0" stroke="black" />
<rect fill="white" fill-opacity="0.0" width="148.5" height="42.5" stroke="black" x="1485.0" y="850.0" />
<rect fill="white" fill-opacity="0.0" width="148.5" height="42.5" stroke="black" x="1485.0" y="892.5" />
<line x1="1534.5" x2="1534.5" y1="850.0" y2="935.0" stroke="black" />
<line x1="1584.0" x2="1584.0" y1="850.0" y2="935.0" stroke="black" />
<line x1="1633.5" x2="1633.5" y1="850.0" y2="935.0" stroke="black" />
<rect fill="white" fill-opacity="0.0" width="148.5" height="42.5" stroke="black" x="1485.0" y="935.0" />
<rect fill="white" fill-opacity="0.0" width="148.5" height="42.5" stroke="black" x="1485.0" y="977.5" />
<line x1="1534.5" x2="1534.5" y1="935.0" y2="1020.0" stroke="black" />
<line x1="1584.0" x2="1584.0" y1="935.0" y2="1020.0" stroke="black" />
<line x1="1633.5" x2="1633.5" y1="935.0" y2="1020.0" stroke="black" />
<text x="373.0" y="297.5" dominant-baseline="middle" font-size="x-large">walk</text>
<text x="373.0" y="382.5" dominant-baseline="middle" font-size="x-large">double</text>
<text x="373.0" y="467.5" dominant-baseline="middle" font-size="x-large">home_run</text>
<text x="373.0" y="552.5" dominant-baseline="middle" font-size="x-large">home_run</text>
<text x="373.0" y="637.5" dominant-baseline="middle" font-size="x-large">field_out</text>
<text x="373.0" y="722.5" dominant-baseline="middle" font-size="x-large">strikeout</text>
<text x="373.0" y="807.5" dominant-baseline="middle" font-size="x-large">hit_by_pitch</text>
<text x="373.0" y="892.5" dominant-baseline="middle" font-size="x-large">strikeout</text>
<text x="466.5" y="977.5" dominant-baseline="middle" font-size="x-large">field_out</text>
<text x="466.5" y="297.5" dominant-baseline="middle" font-size="x-large">field_out</text>
<text x="466.5" y="382.5" dominant-baseline="middle" font-size="x-large">field_out</text>
<text x="560.0" y="467.5" dominant-baseline="middle" font-size="x-large">field_out</text>
<text x="560.0" y="552.5" dominant-baseline="middle" font-size="x-large">home_run</text>
<text x="560.0" y="637.5" dominant-baseline="middle" font-size="x-large">walk</text>
<text x="560.0" y="722.5" dominant-baseline="middle" font-size="x-large">field_out</text>
<text x="560.0" y="807.5" dominant-baseline="middle" font-size="x-large">strikeout</text>
<text x="653.5" y="892.5" dominant-baseline="middle" font-size="x-large">field_out</text>
<text x="653.5" y="977.5" dominant-baseline="middle" font-size="x-large">field_out</text>
<text x="653.5" y="297.5" dominant-baseline="middle" font-size="x-large">field_out</text>
<text x="747.0" y="382.5" dominant-baseline="middle" font-size="x-large">field_out</text>
<text x="747.0" y="467.5" dominant-baseline="middle" font-size="x-large">single</text>
<text x="747.0" y="552.5" dominant-baseline="middle" font-size="x-large">field_out</text>
<text x="747.0" y="637.5" dominant-baseline="middle" font-size="x-large">field_out</text>
<text x="840.5" y="722.5" dominant-baseline="middle" font-size="x-large">field_out</text>
<text x="840.5" y="807.5" dominant-baseline="middle" font-size="x-large">strikeout</text>
<text x="840.5" y="892.5" dominant-baseline="middle" font-size="x-large">strikeout</text>
<text x="934.0" y="977.5" dominant-baseline="middle" font-size="x-large">single</text>
<text x="934.0" y="297.5" dominant-baseline="middle" font-size="x-large">field_out</text>
<text x="934.0" y="382.5" dominant-baseline="middle" font-size="x-large">field_out</text>
<text x="934.0" y="467.5" dominant-baseline="middle" font-size="x-large">hit_by_pitch</text>
<text x="934.0" y="552.5" dominant-baseline="middle" font-size="x-large">strikeout</text>
<text x="1027.5" y="637.5" dominant-baseline="middle" font-size="x-large">field_out</text>
<text x="1027.5" y="722.5" dominant-baseline="middle" font-size="x-large">field_out</text>
<text x="1027.5" y="807.5" dominant-baseline="middle" font-size="x-large">single</text>
<text x="1027.5" y="892.5" dominant-baseline="middle" font-size="x-large">strikeout</text>
</svg>